/* XPM */
static char *c3dc0e716c0d4103952daf29725ded39PLWFLQl7EHK23qJH[] = {
/* columns rows colors chars-per-pixel */
"128 128 80 1 ",
"  c #46464C",
". c #4C4C4E",
"X c #50504F",
"o c #525250",
"O c #555857",
"+ c #5A5A53",
"@ c #565B5B",
"# c #636356",
"$ c #6C6C59",
"% c #706F5B",
"& c #74735C",
"* c #78775D",
"= c #7C7B5E",
"- c #585F60",
"; c #5A6264",
": c #5C6769",
"> c #5E6A6E",
", c #5F6D71",
"< c #606F74",
"1 c #617176",
"2 c #63747A",
"3 c #65797F",
"4 c #848261",
"5 c #888763",
"6 c #8A8964",
"7 c #918F66",
"8 c #939267",
"9 c #969568",
"0 c #989668",
"q c #9E9C6B",
"w c #A19F6C",
"e c #A6A46E",
"r c #A9A66E",
"t c #ABA96F",
"y c #AEAC70",
"u c #B1AE71",
"i c #B4B172",
"p c #B8B574",
"a c #BCBA75",
"s c #C0BD76",
"d c #C3C077",
"f c #C5C278",
"g c #C9C67A",
"h c #CDCA7B",
"j c #D1CE7C",
"k c #D6D37E",
"l c #D9D67F",
"z c #677C84",
"x c #687F88",
"c c #6A848C",
"v c #6D8B95",
"b c #6F8E9A",
"n c #708F9A",
"m c #70919D",
"M c #7395A2",
"N c #7498A5",
"B c #779DAC",
"V c #78A0AF",
"C c #7AA5B5",
"Z c #7CA9BA",
"A c #7DAABC",
"S c #8BAEB8",
"D c #DBD880",
"F c #DCD980",
"G c #DFDC81",
"H c #E0DC82",
"J c #E4E183",
"K c #E6E284",
"L c #E7E484",
"P c #E9E585",
"I c #EBE886",
"U c #EEEA87",
"Y c #EFEC87",
"T c #F1ED87",
"R c #F3EF88",
"E c #F5F189",
"W c #F8F38A",
"Q c #F8F48A",
"! c #82B5C9",
"~ c #9BC7D4",
/* pixels */
"!!!!!!!!!!!!!!!!!!!!!!!!!!!!!!!!!!!!!!!!!!!!!!!!!!!!!!!!!!!!!!!!!!!!!!!!!!!!!!!!!!!!!!!!!!!!!!!!!!!!!!!!!!!!!!!!!!!!!!!!!!!!!!!~",
"!!!!!!~~!~!!!!!!!!!!!!!!!!!!!!!!!!!!!!!!!!!!!!!!!!!!!!!!!!!!!!!!!!!!!!!!!!!!!!!!!!!!!!!!!!!!!!!!!!!!!!!!!!!!!!!!!!!!!!!!!!!!!!!!",
"!!!!!!!!!~~!!!!!!!!!!!!!!!!!!!!!!!!!!!!!!!!!!!!!!!!!!!!!!!!!!!!!!!!!!!!!!!!!!!!!!!!!!!!!!!!!!!!!!~!!~!!!!!!!!!!!!!!~!!!!!!!!!!!!",
"!!!!!!!!!!!!!!!!!~!!!!!!!!!!!!!!!!!!!!!!!!!!!!!!!!!!!!!!!!!!!!!!!!!!!!!!!!!!!!!!!!!!!!!!!!!!!!!!!!!!!!!!!!!!!!!!!!!!!!~!!!!!!!!!",
"!!!!!!!!!!!!!!!!!!!!!!!!!!!!!!!!!!!!!!!!!!!!!!!!!!!!!!!!!!!!!!!!!~~~!!!!!!!!!!!!!!!!!!!!!!!!!!!!!!!!!!!!!!!!!!!!!!!!!!!!!!!!!!!!",
"!!~!!!!!!!!!!!!!!!!!!!!!!!!!!!!!!!!!!!!!!!!!!!!!!!!!!!!!!!!!!!!!!!!!!!!!!!!!!!!!!!!!!!!!!!!!!!!!!!!!!!!!!!!!!!!!!!!!!!!!!!!!!!!!",
"!!!!!!!!!!!!!!!!!!!!!!!!!!!!!!!!!!!!!!!!!!!!!!!!!!!!!!!!!!!!!!!!!!!!~!!!!!!!!!!!!!!!!!!!!!!!!!!!!!!!!!!!!!!!!!!!!!!!!!!!!!!!!!!!",
"!!!!!!!!!!!!!!!!!!!!!!!!!!!!!!!!!!!!!!!!!!!!!!!!!!!!~~!!!!!!!!!!!!!!~!!!!!!!!!!!!!!!!!!!!!!!!!!!!!!!!!!!!!!!!!!!!!!!!!!!!!!!!!~!",
"!!!!!!!!!!!!!!!!!!!!!!!~!!!!!!!!!!!!!!!!!!!!!!!!!!!!!!!!!!!!!!!!!!!!!!!!!!!!!!!!!!!!!!!!!!!!!!!!!!!!!!!!!!!!!!!!!!!!!!!!!!!!!!!!",
"!!!!!!!!!!!!!!!!!!!!!!~~!!!!!!!!!!!!!!!!!!!!!!!!!!!!!!Nc1:@OoooooooooO@:1cN!!!!!!!!!!!!!!!!!!!!!!!!!!!!!!!!!!!!!!!!!!!!!!!!!!!!!",
"!!!!!!!!!!!!!!!!!!!!!!!!!!!!!!!!!!!!!!!!!!!!!!!!!Zc,@ooooooooooooooooooooooo@,cZ!!!!!!!!!!!!!!!!!!!!!!!!!!!!!!!!!!!!!!!!!!!!!!!!",
"!!!!!!!~~!!!!!!!!!!!!!!!!!!!!!!!!!!!!!!!!!!!!!B3;ooooooooooooooooooooooooooooooo;3B!!!!!!!!!!!!!!!!!!!!!!!!!!!!!!!!!!!!!!!!!!!!!",
"!!!!!!!!!!!!!!!!!!!!!!!!!!!!!!!!!!!!!!!!!!!Az;ooooooooooooooooooooooooooooooooooooo;zA!!!!!!!!!!!!!!!!!!!!!!!!!!!!!!!!~~!!!!!!!!",
"!!!!!!!!!!!!!!!!!!!!!!!!!!!!!!!!!!!!!!!!!M,OoooooooooooooooooooooooooooooooooooooooooO,M!!!!!!!!!!!!!!!!!!!!!!!!!!!!!!~!!!!!!!!!",
"!!!!!!!!!!!!!!!!!!!!!!!!!!!!!!!!!!!!!!!m:ooooooooooooooooooooooooooooooooooooooooooooooo:m!!!!!!!!!!!!!!!!!!!!!!!!!!!!!!!!!!!!!!",
"!!!!!!!!!!!!!!!!!!!!!!!!!!!!!!!!!!!!!M:ooooooooooooooooooooooooooooooooooooooooooooooooooo:M!!!!!!!!!!!!!!!!!!!~!!!~~!!!!!!!~~!!",
"!!!!!!!!!!!!!!!!!!!!!!!!!!!!!!!!!!!C<OoooooooooooooooooooooooooooooooooooooooooooooooooooooO<C!!!!!!!!!!!!!!!!!!!!~~~!!!!!!!!!!!",
"!!!!!!!!!!!!!!!!!!!!!!!!!!!!!!!!!!x@ooooooooooooooooooooooooooooooooooooooooooooooooooooooooo@x!!!!!!!!!!!!!!!!!!~~~!!!!!~~!!!!!",
"!!!!!!!!!!!!!!!!!!!!!!!!!!!!!!!!B:ooooooooooooooooooooooooooooooooooooooooooooooooooooooooooooo:B~!!!!!!!!!!!!!!!!!!!~!!!!!!!!!!",
"!!!!!!!!!!!!!!!!!!!!!!!!!!!!!!!c@ooooooooooooooooooooooooooooooooooooooooooooooooooooooooooooooo@c!!!!!!!!!!!!!!!!!!!!!!!!~!!!!!",
"!!!!!!!!!!!!!!!!!!!!!!!!!!!!!!1ooooooooooooooooooooooooooooooooooooooooooooooooooooooooooooooooooo2!!!!!!!!!!!!!!!!!!!!!!!!!!!!!",
"~!!!!!!!!!!!!!!!!!!!!!!!!!!!C:ooooooooooooooooooooooooooooooooooooooooooooooooooooooooooooooooooooo:C!!!!!!!!!!!!!!!!!!!!!!!!!!!",
"~!!!!!!~!!!!!!!!!!!!!!!!!!!M-ooooooooooooooooooooooooooooooooooooooooooooooooooooooooooooooooooooooo;N!!!!!!!!!!!!!!!!!!!!!!!!!!",
"!!!!!!!!!!!!!!!!!!!!!!!!!!b@ooooooooooooooooooooooooooooooooooooooooooooooooooooooooooooooooooooooooo@n!!!!!!!!!!!!!~~!!~~!~~~!!",
"!!!!!!!!!!!!!!!!!!!!!!!!!v@ooooooooooooooooooooooooooooooooooooooooooooooooooooooooooooooooooooooooooo@v!!!!!!!!!!!!~!!!!!!!!!!!",
"!!!!!!!!!!!!!!!~!!!!!!!!vOooooooooooooooooooooooooooooooooooooooooooooooooooooooooooooooooooooooooooooo@v!!!!!!!!!!!!!!!!!!!!!!!",
"!!!!!!!!!!!!!!!~~!!!!!!b@ooooooooooooooooooooooooooooooooooooooooooooooooooooooooooooooooooooooooooooooo@n!!!!!!!!!!!!!!!!!!~~!!",
"!~~!!!!!!!!!!!!!!!!!!!M@ooooooooooooooooooooooooooooooooooooooooooooooooooooooooooooooooooooooooooooooooo@N!!!!!!!!!!!!!!!!!~!!!",
"!~~!!!!!!!!!!!!!!!!!!C-ooooooooooooooooooooooooooooooooooooooooooooooooooooooooooooooooooooooooooooooooooo;C!!!!!!!!!!!!~!!!!!!!",
"!~!!!!!!!!!!!!!!!!!!!:ooooooooooooooooooooooooooooooooooooooooooooooooooooooooooooooooooooooooooooooooooooo:!!!!!!!!!!!!~~!!!!~~",
"!!!!!!!!!!!!!!!!!!!!1ooooooooooooooooooooooooooooooooooooooooooooooooooooooooooooooooooooooooooooooooooooooo2!!!!!!!!!!!~~!!!!~~",
"!!!!!!!!!!!!!!!!!~!coooooooooooooooooooooooooooooooooooooooooooooooooooooooooooooooooooooooooooooooooooooooooc!!!!!!!!!!!!~!!!!~",
"!!!!!!!!!!!!!!!!!!B@ooooooooooooooooooooooooooooooooooooooooooooooooooooooooooooooooooooooooooooooooooooooooo@B!!!!!!!!!!!!!!!!~",
"!!!!!!!!!!!!!!!!!!:ooooooooooooooooooooooooooooooooooooooooooooooooooooooooooooooooooooooooooooooooooooooooooo:!!!!!!!!!!!!!!!!!",
"!!!!!!!!!~!!!!!!!xooooooooooooooooooooooooooooooooooooooooooooooooooooooooooooooooooooooooooooooooooooooooooooo1!!!!!!!!!!!!!!!!",
"!!!!~!!!!~!!!!!!C@oooooooooooooooooooooooooooooooooooooooooooooooooooooooooooooooooooooooooooooooooooooooooooooOS!!!!!!!!!!!!!!!",
"!!!!!!!!!!~!!!!!<ooooooooooooooooooooooooooooooooooooooooooooooooooooooooooooooooooooooooooooooooooooooooooooooo:!!!!!!!!!!!!!!!",
"!!!!!!!!!!!!!!!MOoooooooooooooooooooooooooooooooooooooooooooooooooooooooooooooooooooooooooooooooooooooooooooooooov!!!!!!!!!!!!!~",
"!!!!!!!!!!!!!!!:ooooooooooooooooooooooooooooooooooooooooooooooooooooooooooooooooooooooooooooooooooooooooooooooooo@!!!!!!!!!!!!!!",
"!!!!!!!!!!!!!!moooooooooooooooooooooooooooooooooooooooooooo+&68876=#+oooooooooooooooooooooooooooooooooooooooooooooc!!!!!!~!!!!!!",
"!!!!!!!!!!!!!!:ooooooooooooooooooooooooooooooooooooooooooo%yHEEEERKju5+ooooooooooooooooooooooooooooooooooooooooooo@!!!!!!!!!~!!!",
"!!!!!!!!!!!!!Moooooooooooooooooooooooooooooooooooooooooo+5kEEEEEEEEEEIp$ooooooooooooooooooooooooooooooooooooooooooov!!!!!!!!~!!!",
"!!!!!!~!!!!!!,oooooooooooooooooooooooooooooooooooooooooo6JEEEFaislPEEEEs#oooooooooooooooooooooooooooooooooooooooooo;!!!!!!!!!!!!",
"!!!!!!!!!!!!AOooooooooooooooooooooooooooooooooooooooooo$kEEPt&+++$=0hEET8+ooooooooooooooooooooooooooooooooooooooooooC!!!!!~~!!!~",
"!!!!!!!!!!!!zoooooooooooooooooooooooooooooooooooooooooowEEK8+ooooooo$gEEf+oooooooooooooooooooooooooooooooooooooooooo<!!!!~~!!!!!",
"!!!!!!!!!!!!;ooooooooooooooooooooooooooooooooooooooooo+aEEa+oooooooooqEEh#ooooooooooooooooooooooooooooooooooooooooooO!!!!!!!!!!!",
"!!!!!!!!!!!Boooooooooooooooooooooooooooooooooooooooooo+aEEuooooooooooqEEa+oooooooooooooooooooooooooooooooooooooooooooM!!!!!!!!!!",
"!!!!!!!!!!!3oooooooooooooooooooooooooooooooooooooooooo+pEEuooooooooooqEEa+ooooooooooooooooooooooooooooooooooooooooooo>!~!!!!!!!!",
"!!!!~!!!!!!;oooooooooooooooooooooooooooooooooooooooooo+pEEuooooooooooqEEa+oooooooooooooooooooooooooooooooooooooooooooO!!!!!!!!!!",
"!!!!!!!!!!Zooooooooooooooooooooooooooooooooooooooooooo+pEEuooooooooooqEEa+ooooooooooooooooooooooooooooooooooooooooooooC!~!!!!!!!",
"!!!!!!!!!!cooooooooooooooooooooooooooooooooooooooooooo+pEEuooooooooooqEEa+oooooooooooooooooooooooooooooooooooooooooooo3~~!!!!!!!",
"!!!!!!!!!!,ooooooooooooooooooooooooooooooooooooooooooo+pEEuooooooooooqEEa+oooooooooooooooooooooooooooooooooooooooooooo;!!!!!!!!!",
"!!!!!!!!!!@ooooooooooooooooooooooooooooooooooooooooooo+pEEuooooooooooqEEa+ooooooooooooooooooooooooooooooooooooooooooooO!!!!!!!!!",
"!!!!!!!!!!oooooooooooooooooooooooooooooooooooooooooooo+pEEu+oooooooooqEEa+ooooooooooooooooooooooooooooooooooooooooooooo!!!!!!!!!",
"!!~!!!~~!Noooooooooooooooooooooooooooooooooooooooooooo+pEEuooooooooooqEEa+ooooooooooooooooooooooooooooooooooooooooooooob!!!!!!!!",
"!!!!!!!!!coooooooooooooooooooooooooooooooooooooooooooo+pEEy$6tdkFkdt6yEEa+ooooooooooooooooooooooooooooooooooooooooooooo2!!!!!!!!",
"!!!!!!!!!1oooooooooooooooooooooooooooooooooooooooooooo+iEEFJEEEEEEEEETEEa+ooooooooooooooooooooooooooooooooooooooooooooo:!!!!!!!!",
"!!!!!!!!!:oooooooooooooooooooooooooooooooooooooooooooo+yEEEEEEEEEEEEEEEEG=ooooooooooooooooooooooooooooooooooooooooooooo@!!!!!!!!",
"!!!!!!!!!@ooooooooooooooooooooooooooooooooooooooooooo+9HEEEEEEEEEEEEEEEEEH9+oooooooooooooooooooooooooooooooooooooooooooO!!!!!!!!",
"!!!!!!!!!Ooooooooooooooooooooooooooooooooooooooooooo+rUEEEEEEEEEEEEEEEEEEEUr+ooooooooooooooooooooooooooooooooooooooooooo!!!!!!!!",
"!!!!!!!!!oooooooooooooooooooooooooooooooooooooooooo+rREEEEEEEEEEEEEEEEEEEEERr+oooooooooooooooooooooooooooooooooooooooooo!!!!!!!!",
"!!!!!!!!!oooooooooooooooooooooooooooooooooooooooooo8UEEEEEEEEEEEEEEEEEEEEEEEU8oooooooooooooooooooooooooooooooooooooooooo!!!!!!!!",
"!!!!!!!!!ooooooooooooooooooooooooooooooooooooooooo&HEEEEEEEEEEEEEEEEEEEEEEEEEH&ooooooooooooooooooooooooooooooooooooooooo!!!!!!!!",
"!!!!!!!!!oooooooooooooooooooooooooooooooooooooooo+sEEEEEEEEEEEEQQEEEEEEEEEEEEEs+oooooooooooooooooooooooooooooooooooooooo!!!!!!!!",
"!!!!!!!!!oooooooooooooooooooooooooooooooooooooooo=UEEEEEEEEEEERHlJEEEEEEEEEEEEU=oooooooooooooooooooooooooooooooooooooooo!!!!!!!~",
"!!!!!!!!!ooooooooooooooooooooooooooooooooooooooo+aEEEEEEEEEEELy=%4aREEEEEEEEEEEa+ooooooooooooooooooooooooooooooooooooooo!!!!!!!~",
"!!!!!!!!!ooooooooooooooooooooooooooooooooooooooo$JEEEEEEEEEEUr+.X.#aEEEEEEEEEEEJ$ooooooooooooooooooooooooooooooooooooooo!!!!!!!!",
"!!!!!!!!!ooooooooooooooooooooooooooooooooooooooo8EEEEEEEEEEEl&.oooX6PEEEEEEEEEEE8ooooooooooooooooooooooooooooooooooooooo!!!!!!!!",
"!!!!!!!!!ooooooooooooooooooooooooooooooooooooooouEEEEEEEEEEEh#.oooo&HEEEEEEEEEEEuooooooooooooooooooooooooooooooooooooooo!!!!!!!!",
"!!!!!!!!!OoooooooooooooooooooooooooooooooooooooogEEEEEEEEEEEl&.ooo.5PEEEEEEEEEEEgooooooooooooooooooooooooooooooooooooooo!!!!!!!!",
"!!!!!!!!!@ooooooooooooooooooooooooooooooooooooooFEEEEEEEEEEEUr+.o.#aEEEEEEEEEEEEFooooooooooooooooooooooooooooooooooooooO~!!!!!!!",
"!!!!!!!!!:ooooooooooooooooooooooooooooooooooooooPEEEEEEEEEEEEKw+.+eYEEEEEEEEEEEEPoooooooooooooooooooooooooooooooooooooo@!!!!!!!!",
"!!!!!!!!!1ooooooooooooooooooooooooooooooooooooooPEEEEEEEEEEEEQD$ #hQEEEEEEEEEEEEPoooooooooooooooooooooooooooooooooooooo:!!!!!!!!",
"!!!!!!!!!cooooooooooooooooooooooooooooooooooooooGEEEEEEEEEEEEQH$ #hQEEEEEEEEEEEEGoooooooooooooooooooooooooooooooooooooo2!!!!!!!!",
"!!!!!!!!!NoooooooooooooooooooooooooooooooooooooohEEEEEEEEEEEEQH$ #hQEEEEEEEEEEEEhoooooooooooooooooooooooooooooooooooooob!!!!!!!!",
"!!!!!!!!!!ooooooooooooooooooooooooooooooooooooooiEEEEEEEEEEEEQH$ #hQEEEEEEEEEEEEioooooooooooooooooooooooooooooooooooooo!!!!!!!!!",
"!!!!!!!!!!@ooooooooooooooooooooooooooooooooooooo8EEEEEEEEEEEEQH$ #hQEEEEEEEEEEEE8oooooooooooooooooooooooooooooooooooooO!!!!!!!!!",
"~!!!!!!!!!,ooooooooooooooooooooooooooooooooooooo$KEEEEEEEEEEEWU4 &HQEEEEEEEEEEEK$ooooooooooooooooooooooooooooooooooooo;!!!!!!!!!",
"!!!!!!!!!!cooooooooooooooooooooooooooooooooooooo+sEEEEEEEEEEEEEjegREEEEEEEEEEEEs+ooooooooooooooooooooooooooooooooooooo3!!!!!!!!!",
"!!!!!!!!!!Zoooooooooooooooooooooooooooooooooooooo4UEEEEEEEEEEEEQQQEEEEEEEEEEEEU4ooooooooooooooooooooooooooooooooooooooC!!!!!!!!!",
"!!!!!!!!!!!;ooooooooooooooooooooooooooooooooooooo+fEEEEEEEEEEEEEEEEEEEEEEEEEEEf+oooooooooooooooooooooooooooooooooooooO!!!!!!!!!!",
"!!!!!!!!!!!3oooooooooooooooooooooooooooooooooooooo*JEEEEEEEEEEEEEEEEEEEEEEEEEJ*oooooooooooooooooooooooooooooooooooooo>!!!!!!!!!!",
"!!!!!!!!!!!Boooooooooooooooooooooooooooooooooooooo+qTEEEEEEEEEEEEEEEEEEEEEEETq+ooooooooooooooooooooooooooooooooooooooM!!!!!!!!!!",
"!!!!!!!!!!!!;oooooooooooooooooooooooooooooooooooooo+yEEEEEEEEEEEEEEEEEEEEEEEy+ooooooooooooooooooooooooooooooooooooooO!!!!!!!!!!!",
"!!!!!!!!!!!!zooooooooooooooooooooooooooooooooooooooo+yREEEEEEEEEEEEEEEEEEERy+ooooooooooooooooooooooooooooooooooooooo<!!!!!!!!!!!",
"!!!!!!!!!!!!AOooooooooooooooooooooooooooooooooooooooo+qKEEEEEEEEEEEEEEEEEKq+ooooooooooooooooooooooooooooooooooooooooC!!!!!!!!!!!",
"!!!!!!!!!!!!!,ooooooooooooooooooooooooooooooooooooooooo=gTEEEEEEEEEEEEETg=ooooooooooooooooooooooooooooooooooooooooo;!!!!!!!!!!!!",
"!!!!!!!!!!!!!Moooooooooooooooooooooooooooooooooooooooooo+6sUEEEEEEEEEUs6+oooooooooooooooooooooooooooooooooooooooooov!!!!!!!!!!!!",
"!!!!!!!!!!!!!!:ooooooooooooooooooooooooooooooooooooooooooo+&9ihFKFhi9&+ooooooooooooooooooooooooooooooooooooooooooo@!!!!!!!!!!!!~",
"!!!!!!!!!!!!!!moooooooooooooooooooooooooooooooooooooooooooooooooooooooooooooooooooooooooooooooooooooooooooooooooooc!!!!!!!!!!!!~",
"!!!!!!!!!!!!!!!:ooooooooooooooooooooooooooooooooooooooooooooooooooooooooooooooooooooooooooooooooooooooooooooooooo@!!!!!!!!!~!!!!",
"!!!!!!!!!!!!!!!MOoooooooooooooooooooooooooooooooooooooooooooooooooooooooooooooooooooooooooooooooooooooooooooooooov!!!!!!!~!!!!!!",
"!!!!!!!!!!!!!!!!<ooooooooooooooooooooooooooooooooooooooooooooooooooooooooooooooooooooooooooooooooooooooooooooooo;!!!!!!!!!!~!!!!",
"!!!!!!!!!!!!!!!!C@ooooooooooooooooooooooooooooooooooooooooooooooooooooooooooooooooooooooooooooooooooooooooooooooV!!!!!!!!!!!!!!!",
"!!!!!!!!!!!!!!!!!xooooooooooooooooooooooooooooooooooooooooooooooooooooooooooooooooooooooooooooooooooooooooooooo1!!!!!!!!!!!!!!!!",
"!!!!!!!!!!!!!!!!!!:ooooooooooooooooooooooooooooooooooooooooooooooooooooooooooooooooooooooooooooooooooooooooooo@!!!!!!!!!!!~!!!!!",
"!!!!!!!!!!!!!!!!!!B@ooooooooooooooooooooooooooooooooooooooooooooooooooooooooooooooooooooooooooooooooooooooooooM!!!!!!!!!!!!!!!!!",
"!!!!!!!!!!!!!!!!!!!cooooooooooooooooooooooooooooooooooooooooooooooooooooooooooooooooooooooooooooooooooooooooo3!!~!!!!!!!!!!!!!!!",
"!!!!!!!!!!!!!!!!!!!!1ooooooooooooooooooooooooooooooooooooooooooooooooooooooooooooooooooooooooooooooooooooooo:!!!!!!!!!!!!!!!!!!!",
"!!!!!!!!!!!!!!!!!!!!!:ooooooooooooooooooooooooooooooooooooooooooooooooooooooooooooooooooooooooooooooooooooo@!!!!!!!!!!!!!!!!!!!!",
"!!!!!!!!!!!!!!!!!!!!!C-oooooooooooooooooooooooooooooooooooooooooooooooooooooooooooooooooooooooooooooooooooOB!!!!!!!!!!!!!!!~!!~~",
"!!!!!!!!!!!!!!!!!!!!!!M@oooooooooooooooooooooooooooooooooooooooooooooooooooooooooooooooooooooooooooooooooov!!!!!!!!!!!!!!!!!!!!~",
"!!!!!!!!!!!!!!!!!!!!!!!b@ooooooooooooooooooooooooooooooooooooooooooooooooooooooooooooooooooooooooooooooooc!!!!!!!!!!!!!!!!!!!!!!",
"!!!!!!!!!!!!!!!!!!!!!!!!vOooooooooooooooooooooooooooooooooooooooooooooooooooooooooooooooooooooooooooooooz!!!!!!!!!!!!!!!!!!!!!!!",
"!!!!!!!!!!!!!!!!!!!!!!!!!v@ooooooooooooooooooooooooooooooooooooooooooooooooooooooooooooooooooooooooooooz!!!!!!!!!!!!!!!!!!!!!!!!",
"!!!!!!!!!!!!!!!!!!!!!!!!!!n@ooooooooooooooooooooooooooooooooooooooooooooooooooooooooooooooooooooooooooc!!!!!!!!!!!!!!!!!!!!!!!!!",
"!!!!!!!!!!!!!!!!!!!!!!!!!!!N;oooooooooooooooooooooooooooooooooooooooooooooooooooooooooooooooooooooooOv!!!!!!!!!!!!!!!!!!!!!!!!!!",
"!!!!!!!!!!!!!!!!!!!!!!!!!!!!C:ooooooooooooooooooooooooooooooooooooooooooooooooooooooooooooooooooooo@B!!!!!!!!!!!!!!!!!!!!!!!!!!!",
"!!!!!!!!!!!!!!!!!!!!!!!!!!!!!!2ooooooooooooooooooooooooooooooooooooooooooooooooooooooooooooooooooo:!!!!!!!!!!!!!!!!!!!!!!!!!!!!!",
"!!!!!!!!!!!!!!!!!!!!!!!!!!!!!!!c@oooooooooooooooooooooooooooooooooooooooooooooooooooooooooooooooo3!!!!!!!!!!!!!!!!!!!!!!!!!!!!!!",
"!!!!!!!!!!!!!!!!!!!!!!!!!!!!!!!!B>ooooooooooooooooooooooooooooooooooooooooooooooooooooooooooooo@M!!!!!!!!!!!!!!!!!!!!!!!!!!!!!!!",
"!!!!!!!!!!!!!!!!!!!!!!!!!!!!!!!!!!c@oooooooooooooooooooooooooooooooooooooooooooooooooooooooooo1!!!!!!!!!!!!!!!!!!!!!!!!!!!!!!!!!",
"!!!!!!!!!~!!!!!!!!!!!!!!!!!!!!!!!!!C1Ooooooooooooooooooooooooooooooooooooooooooooooooooooooo;V!!!!!!!!!!!!!!!!!!!!!!!!!!!!!!!!!!",
"!!!!!!!!!!!!!!!!!!!!!!!!!!!!!!!!!!!!!m-ooooooooooooooooooooooooooooooooooooooooooooooooooo@v!!!!!!!!!!!!!!!!!!!!!!!!!!!!!!!!!!!!",
"!!!~!!!!!!!!!!!!!!!!!!!!!!!!!!!!!!!!!!!c@ooooooooooooooooooooooooooooooooooooooooooooooo@c!!!!!!!!!!!!!!!!!!!!!!!!!!!!!!!!!!!!!!",
"!!!!!!!!!!!!!!!!!!!!!!!!!!!!!!!!!!!!!!!!!v;ooooooooooooooooooooooooooooooooooooooooooo;v!!!!!!!!!!!!!!!!!!!!!!!!!!!!!!!!!!!!!!!!",
"!!!!!!!!!!!!!!!!!!!!!!!!!!!!!!!!!!!!!!!!!!!C<OoooooooooooooooooooooooooooooooooooooO<C!!!!!!!!!!!!!!!!!!!!!!!!!!!!!!!!!!!!!!!!!!",
"!!!!!!!!!!!!!!!!!!!!!!!!!!!!!!!!!!!!!!!!!!!!!!M>OoooooooooooooooooooooooooooooooO>M!!!!!!!!!!!!!!!!!!!!!!!!!!!!!!!!!!!!!!!!!!!!!",
"!!!!!!!!!!!!!!!!!!!!!!!!!!!!!!!!!!!!!!!!!!!!!!!!!C3;OoooooooooooooooooooooooO;3C!!!!!!!!!!!!!!!!!!!!!!!!!!!!!!!!!!!!!!!!!!!!!!!!",
"!!!!!!!!!!!!!!!!!!!!!!!!!!!!!!!!!!!!!!!!!!!!!!!!!!!!!!b2:@OoooooooooooO@:2b!!!!!!!!!!!!!!!!!!!!!!!!!!!!!!!!!!!!!!!!!!!!!!!!!!!!!",
"!!!!!!!!!~!!!!!!!!!!!!!!!!!!!!!!!!!!!!!!!!!!!!!!!!!!!!!!!!!!!!!!!!!!!!!!!!!!!!!!!!!!!!!!!!!!!!!!!!!!!!!!!!!!!!!!!!!!!!!!!!!!!!!!",
"!!!!!!!!!~~~!!!!!!!!!!!!!!!!!!!!!!!!!!!!!!!!!!!!!!!!!!!!!!!!!!!!!!!!!!!!!!!!!!!!!!!!!!!!!!!!!!!!!!!!!!!!!!!!!!!!!!!!!!!!!!!!!!!!",
"!!!!!!!!!!!!!!!!!!!!!!!!!!!!!!!!!!!!!!!!!!!!!!!!!!!!!!!!!!!!!!!!!!!!!!!!!!!!!!!!!!!!!!!!!!!!!!!!!!!!!!!!!!!!!!!!!!!!!!!!!!!!!!!!",
"!!!!!!!!!!!!!!!!!!!!!!!!!!!!!!!!!!!!!!!!!!!!!!!!!!!!!!!!!!!!!!!!!!!!!!!!!!!!!!!!!!!!!!!!!!!!!!!!!!!!!!!!!!!!!!!!!!!!!!!!!!!!!!!!",
"!!!!!!!!!!!!!!!!!!!!!!!!!!!!!!!!!!!!!!!!!!!!!!!!!~!!!!!!!!!!!!!!!!!!!!!!!!!!!!!!!!!!!!!!!!!!!!!!!!!!!!!!!!!!!!!!!!!!!!!!!!!!!!!!",
"!!!!!!!!!!!!!!!!!!!!!!!!!!!!!!!!!!!!!!!!!!!!!!!!!!!!!!!!!!!!!!!!!!!!!!!!!!!!!!!!!!!!!!!!!!!!!!!!!!!!!!~!!!!!!!!!!!!!!!!!!!!!!!!!",
"!!!!!!!!!!!!!!!!!!!!!!!!!!!!!!!!!!!!!!!!!!!!!!!!!!!!!!!!!!!!!!!!!!!!!!!!!!!!!!!!!!!!!!!!!!!!!!!~~!!!!!!!!!!!!!!!!!!!!!!!!!!!!!!!",
"!!!!!!!!!!!!!!!!!!!!!!!!!!!!!!!!!!!!!!!!!!!!!!!!!!!!!!!!!!!!!!!!!!!!!!!!!!!!!!!!!!!!!!!!!!!!!!!!~!!!!!!!!!!!!!!!!!!!!!!!!!!!!!!!"
};
