/* XPM */
static char *dd6e614cbae1451cd8ec56235a60be42ktJuIhOycKDWIm8F[] = {
/* columns rows colors chars-per-pixel */
"128 128 86 1 ",
"  c #000000",
". c #050709",
"X c #080B0E",
"o c #0A0D12",
"O c #0C1116",
"+ c #0E141B",
"@ c #10161E",
"# c #11181F",
"$ c #111720",
"% c #131A23",
"& c #161F29",
"* c #17212C",
"= c #19222E",
"- c #1A2532",
"; c #1C2837",
": c #1E2B39",
"> c #202E3E",
", c #222F40",
"< c #233243",
"1 c #263649",
"2 c #28374B",
"3 c #27384C",
"4 c #2B3D53",
"5 c #2E4157",
"6 c #2E435A",
"7 c #30445C",
"8 c #324761",
"9 c #344A63",
"0 c #374E69",
"q c #384F6A",
"w c #39516E",
"e c #3D5674",
"r c #3E5877",
"t c #3F5979",
"y c #415C7D",
"u c #435E80",
"i c #456285",
"p c #476589",
"a c #49678B",
"s c #4A688D",
"d c #4D6D93",
"f c #4F6F98",
"g c #4E7097",
"h c #4F7199",
"j c #51739C",
"k c #5477A1",
"l c #567AA5",
"z c #587BA7",
"x c #597FAC",
"c c #5B80AE",
"v c #5D84B2",
"b c #5F88B8",
"n c #6087B7",
"m c #628BBB",
"M c #658FC1",
"N c #6792C5",
"B c #6894C7",
"V c #6794C8",
"C c #6B98CD",
"Z c #6E9CD2",
"A c #709FD7",
"S c #70A0D7",
"D c #72A3DC",
"F c #76A6E1",
"G c #75A8E2",
"H c #77ABE5",
"J c #78AAE7",
"K c #78ACE6",
"L c #7AACE8",
"P c #7BAFEB",
"I c #7BAFEC",
"U c #7CAFED",
"Y c #7BB0EE",
"T c #7CB0EE",
"R c #7DB3F2",
"E c #7EB4F3",
"W c #7FB4F4",
"Q c #7FB5F5",
"! c #7FB7F6",
"~ c #80B4F4",
"^ c #80B5F4",
"/ c #80B6F6",
"( c #81B8F7",
") c #81B7F8",
"_ c #82B8F8",
"` c #82BAFB",
/* pixels */
"                    ..                                         ..                                         ..                    ",
"                    $X                                         $X                                         $X                    ",
"                    1@                                         1@                                         1@                    ",
"                    y>                                         y>                                         y<                    ",
"                    m8                                         m8                                         m8                    ",
"                   OId                                        OPd                                        OId                    ",
"                   3_ZX                                       3_ZX                                       3_ZX                   ",
"                   l/Q1                                       l/Q1                                       l/E1                   ",
"                  &JUQx                                      %KTQx                                      %JUQx                   ",
"                  d_PIY:                                     d)PIT:                                     h/PIT:                  ",
"                 -PUPPQm                                    -PTPP/v                                    ;TIPP/v                  ",
"                 nQPPPP_0                                  .nQPPPP/8                                  .m/PPPP_8                 ",
"                e)PPPPPTH*                                 e_PPPPPTF&                                 y_PPPPPTF&                ",
"               2RUPPPPPPQBo                               2RUPPPPPPQNo                               4RIPPPPPP/No               ",
"              >HRPPPPPPPP/bX                             ,HRPPPPPPPP)cX                             ,PRPPPPPPPP_vX              ",
"             1HRPPPPPPPPPP)bO                           3JRPPPPPPPPPP)nO                           3HRPPPPPPPPPP_vo             ",
"            0IRPPPPPPPPPPPP/V-                         wYRPPPPPPPPPPPP/V-                         wTRPPPPPPPPPPPP/N=            ",
"          %l/YPPPPPPPPPPPPPP/Hw.                     %l_TPPPPPPPPPPPPPPRHw.                     $l/YPPPPPPPPPPPPPP/Hq.          ",
"        otD/PPPPPPPPPPPPPPPPPT)m1                  orD/PPPPPPPPPPPPPPPPPT)m1                  otD(PPPPPPPPPPPPPPPPPI_m1         ",
"      =iA_RPPPPPPPPPPPPPPPPPPPPQRm7+             *iA)TPPPPPPPPPPPPPPPPPPPP/Rm7+            .-iA_TPPPPPPPPPPPPPPPPPPPPQRm7+      ",
".@>8aNI_TPPPPPPPPPPPPPPPPPPPPPPPPE/Gct4-o. .$,8aNP_TPPPPPPPPPPPPPPPPPPPPPPPIRQFcy4-o. .$>9sNY/TPPPPPPPPPPPPPPPPPPPPPPPPQ/Fct4-o.",
"o*4yvFQ/UPPPPPPPPPPPPPPPPPPPPPPPPR)RZjq<$. o*4tvF//UPPPPPPPPPPPPPPPPPPPPPPPPR/TZj0<$. o*4yvF//UPPPPPPPPPPPPPPPPPPPPPPPPR_TZj0<@.",
"     o1lJ)IPPPPPPPPPPPPPPPPPPPPR/Zu-.           o1lJ/IPPPPPPPPPPPPPPPPPPPPR/Zu=.           O1lJ/IPPPPPPPPPPPPPPPPPPPPR/Zu-.     ",
"        &jTRPPPPPPPPPPPPPPPPPP)DwX                 &kTEPPPPPPPPPPPPPPPPPI)DwX                 &jYRPPPPPPPPPPPPPPPPPI_DwX        ",
"          <B_PPPPPPPPPPPPPPPREd+                     <B_PPPPPPPPPPPPPPPTEd+                     <B)PPPPPPPPPPPPPPPRRd+          ",
"           Xs/TPPPPPPPPPPPPRF4                        Xd/IPPPPPPPPPPPPRF4                        Xd/TPPPPPPPPPPPP/D3            ",
"             0RTPPPPPPPPPPQZ-                           wRTPPPPPPPPPP/Z-                           wETPPPPPPPPPP/C*             ",
"              7EIPPPPPPPP/C$                             8RUPPPPPPPPQC$                             9QYPPPPPPPPQC@              ",
"               q/PPPPPPPRD&                               0/PPPPPPPRD$                               e_PPPPPPPRA%               ",
"                d_PPPPPIR<                                 d_PPPPPTU>                                 g_PPPPPUU>                ",
"                XNQPPPP_y                                  XNRPPPP_t                                  oCRPPPP_t                 ",
"                 ,RPPPRV.                                   ,RPPPQM.                                   1RPPPQM.                 ",
"                  k/PPE2                                     k_PPR1                                     x/PPQ1                  ",
"                  -YIQm                                      -II/m                                      -II/m                   ",
"                   v//4                                       vQ/4                                       vQ/4                   ",
"                   7_Do                                       7_Do                                       6_Do                   ",
"                   +Rj                                        @Rj                                        @Tj                    ",
"                    V0                                         V0                                         V0                    ",
"                    p1                                         p<                                         p1                    ",
"                    4$                                         4%                                         4%                    ",
"                    &X                                         &o                                         &o                    ",
"                    X.                                         X.                                         X.                    ",
"                                                                                                                                ",
"                    ..                                         ..                                         ..                    ",
"                    $X                                         $X                                         $X                    ",
"                    2#                                         3#                                         3$                    ",
"                    y<                                         y>                                         y,                    ",
"                    m8                                         m8                                         m8                    ",
"                   OPd                                        OPd                                        OPd                    ",
"                   3_ZX                                       3_ZX                                       3_ZX                   ",
"                   z/Q1                                       l/Q1                                       l/E1                   ",
"                  &JUQx                                      %JUQx                                      %JUQc                   ",
"                  d)PIU:                                     d_PIT:                                     j_PIT:                  ",
"                 -IUPPQm.                                   -ITPP/v                                    ;TYPP/v                  ",
"                .nQPPPPQq                                  .nQPPPP/8                                  .mQPPPP_8                 ",
"                y_PPPPPUJ-                                 y_PPPPPTG&                                 u_PPPPPTG*                ",
"               4RIPPPPPP/CO                               4RIPPPPPPQVo                               5EIPPPPPPQVo               ",
"              <PTPPPPPPPP)mX                             1PTPPPPPPPPQbo                             1PTPPPPPPPP)bX              ",
"             1HRPPPPPPPPPP)nO                           3JRPPPPPPPPPP)b+                           3JRPPPPPPPPPP)vo             ",
"            0YRPPPPPPPPPPPP(V-                         wYRPPPPPPPPPPPP/V-                         wIRPPPPPPPPPPPP/N=            ",
"          %l/YPPPPPPPPPPPPPP/Jw.                     %l)IPPPPPPPPPPPPPPQJw.                     %l_TPPPPPPPPPPPPPP/Hw.          ",
"        otD/PPPPPPPPPPPPPPPPPT_m1                  otD/PPPPPPPPPPPPPPPPPY)m1                  otD/PPPPPPPPPPPPPPPPPT)m1         ",
"      =iS_TPPPPPPPPPPPPPPPPPPPP/Rm6+            .=iS)RPPPPPPPPPPPPPPPPPPPP/Rm7+            .-iA)TPPPPPPPPPPPPPPPPPPPP/Rm7+      ",
".@>8aNI_TPPPPPPPPPPPPPPPPPPPPPPPPQ/Gvt4-o. .#<8aNI_TPPPPPPPPPPPPPPPPPPPPPPPPQ/Fct4-o. .$>8sVT/TPPPPPPPPPPPPPPPPPPPPPPPPE/Fct4-o.",
"X*4yvF//UPPPPPPPPPPPPPPPPPPPPPPPPR)RZj0<$. o*4yvF//TPPPPPPPPPPPPPPPPPPPPPPPPR_TZj0<$. o*4yvG//UPPPPPPPPPPPPPPPPPPPPPPPPR_TZj0<@.",
"     o1lJ)IPPPPPPPPPPPPPPPPPPPPT/Zy-.           o1kJ)YPPPPPPPPPPPPPPPPPPPPR/Zy=.           o2kJ)IPPPPPPPPPPPPPPPPPPPPR)Zy=.     ",
"        *gUQPPPPPPPPPPPPPPPPPI)Z0X                 &gUQPPPPPPPPPPPPPPPPPI_Z0X                 *dUQPPPPPPPPPPPPPPPPPP)Z0X        ",
"          :M_IPPPPPPPPPPPPPPRRao                     :M_PPPPPPPPPPPPPPPRRsO                     :m_PPPPPPPPPPPPPPPRTao          ",
"           .i/TPPPPPPPPPPPPQD3                        .s/IPPPPPPPPPPPP/D3                        .s/TPPPPPPPPPPPP/D1            ",
"             8TTPPPPPPPPPP/C&                           9RYPPPPPPPPPP/C&                           0RTPPPPPPPPPP/B%             ",
"              7RIPPPPPPPPQZ$                             9RUPPPPPPPPQC@                             9EIPPPPPPPPQV@              ",
"               0/PPPPPPPRD&                               0/PPPPPPPRA$                               e/PPPPPPPRA$               ",
"                d_PPPPPYR<                                 d_PPPPPUU>                                 g_PPPPPTU>                ",
"                XVEPPPP_y                                  XVEPPPP_e                                  oCRPPPP_r                 ",
"                 <EPPPEV.                                   <EPPPQM.                                   1EPPPQM.                 ",
"                  k/PPR2                                     k/PPQ1                                     x/PIQ1                  ",
"                  -YIQm                                      -II/m                                      -IIQm                   ",
"                   v//4                                       v//4                                       v//4                   ",
"                   6_Do                                       6_Do                                       6_Do                   ",
"                   +Tj                                        +Tj                                        +Tj                    ",
"                    N9                                         N9                                         N0                    ",
"                    p<                                         i1                                         i<                    ",
"                    4$                                         4%                                         4%                    ",
"                    &X                                         &X                                         &o                    ",
"                    X.                                         X.                                         X.                    ",
"                                                                                                                                ",
"                    ..                                         ..                                         ..                    ",
"                    $X                                         $X                                         $X                    ",
"                    3@                                         3@                                         3$                    ",
"                    u,                                         y<                                         u<                    ",
"                    m9                                         m9                                         m8                    ",
"                   OTd                                        OUd                                        OUd                    ",
"                   3_ZX                                       3_ZX                                       3_ZX                   ",
"                   z/Q1                                       z/Q1                                       z//1                   ",
"                  &JUQx                                      %JTQx                                      &JUQc                   ",
"                  d_PIT:                                     d)PIT:                                     j_PIY:                  ",
"                 -PUPPQm                                    -PUPP/v                                    ;UYPP/v                  ",
"                .nQPPPP/0                                  .nQPPPP_8                                  .mQPPPP_9                 ",
"                y)PPPPPYK-                                 y_PPPPPTH*                                 u_PPPPPTH*                ",
"               4RIPPPPPP/C+                               4RIPPPPPPQVo                               6QIPPPPPPQVo               ",
"              <PTPPPPPPPP/mo                             1PTPPPPPPPP/bo                             1PTPPPPPPPP/bo              ",
"             3KRPPPPPPPPPP(m+                           4PRPPPPPPPPPP/m+                           4PRPPPPPPPPPP)b+             ",
"            wTRPPPPPPPPPPPP/C:                         eRTPPPPPPPPPPPP/Z:                         eRTPPPPPPPPPPPP/V;            ",
"          &c/UPPPPPPPPPPPPPPRPe.                     &c/TPPPPPPPPPPPPPPRPr.                     &c_UPPPPPPPPPPPPPPEJe.          ",
"        oyH/PPPPPPPPPPPPPPPPPT/N3                  oyH/PPPPPPPPPPPPPPPPPT_N3                  oyFQPPPPPPPPPPPPPPPPPU)N3         ",
"      =iS_TPPPPPPPPPPPPPPPPPPPPERm6+             =iA/YPPPPPPPPPPPPPPPPPPPPERm6+            .-iS_IPPPPPPPPPPPPPPPPPPPPQRm7+      ",
".@>8sNI_TPPPPPPPPPPPPPPPPPPPPPPPPQ/Fvy4-o. .$<8aNI/TPPPPPPPPPPPPPPPPPPPPPPPPE/Fct4-o. .$>9sVU/TPPPPPPPPPPPPPPPPPPPPPPPPR/Fct4-o.",
"X*4yvFQ/UPPPPPPPPPPPPPPPPPPPPPPPPR_TZj0<$. o*4yvFQ/UPPPPPPPPPPPPPPPPPPPPPPPPR/TZh0<$. o*4yvGQ/UPPPPPPPPPPPPPPPPPPPPPPPPR_TZfq<$.",
"     o1lJ/IPPPPPPPPPPPPPPPPPPPPR/Zy-.           o1kJ/YPPPPPPPPPPPPPPPPPPPPR/Zy-.           o3lJ/IPPPPPPPPPPPPPPPPPPPPR_Zy=.     ",
"        &dT/PPPPPPPPPPPPPPPPPI_Z0X                 &dU/PPPPPPPPPPPPPPPPPI_Z0X                 &dU/PPPPPPPPPPPPPPPPPI_Z0X        ",
"          >M)IPPPPPPPPPPPPPPRRaO                     >m_PPPPPPPPPPPPPPPRRsO                     >m_PPPPPPPPPPPPPPPRRsO          ",
"           .iQUPPPPPPPPPPPPED3                        .aQIPPPPPPPPPPPPQD3                        .aQYPPPPPPPPPPPP/D1            ",
"             9TTPPPPPPPPPP/C*                           0RTPPPPPPPPPPQC&                           0RTPPPPPPPPPP/N%             ",
"              5TTPPPPPPPPQV@                             7TYPPPPPPPP/N+                             6RUPPPPPPPP/N+              ",
"               9QIPPPPPPED%                               8QIPPPPPPRZ@                               0/PPPPPPPRZ@               ",
"                a_PPPPPUU>                                 a_PPPPPIP:                                 d_PPPPPTP:                ",
"                .VEPPPP_y                                  .B/PPPP_r                                  XCRPPPP_e                 ",
"                 <RPPPRV.                                   <EPPPQM.                                   1RIPPQM.                 ",
"                  k/PPR2                                     k/PPE1                                     x/PPR1                  ",
"                  -II/n                                      -II/m                                      -II/m                   ",
"                   vQ/4                                       vQ/4                                       vQ/4                   ",
"                   6_Do                                       6_Do                                       6_Do                   ",
"                   +Rj                                        +Tj                                        +Tj                    ",
"                    N9                                         N0                                         N9                    ",
"                    i<                                         i<                                         i<                    ",
"                    4$                                         4$                                         4$                    ",
"                    &o                                         &X                                         &X                    ",
"                    ..                                         X.                                         X.                    "
};
